<svg width="308" height="315" viewBox="0 0 308 315" fill="none" xmlns="http://www.w3.org/2000/svg">
<rect width="308" height="315" fill="white"/>
<path d="M36 180.931V180.636H51.1674V180.931C51.1674 187.07 53.8539 190.386 59.902 190.386C65.9501 190.386 68.4477 187.07 68.4477 180.931V140H84V180.931C84 195.545 75.3599 205 59.8076 205C44.2553 205 36 195.545 36 180.931Z" fill="#353535"/>
<path d="M94 166.968C94 149.62 103.824 139 121.904 139C139.985 139 150 149.62 150 166.968V204H134.25V185.871H109.36V204H94V166.968ZM134.257 172.23V166.968C134.257 158.198 130.463 153.614 121.809 153.614C113.154 153.614 109.36 158.19 109.36 166.968V172.23H134.25H134.257Z" fill="#353535"/>
<path d="M153 140H169.956L183.699 185.602L197.435 140H214L192.173 204H174.827L153 140Z" fill="#353535"/>
<path d="M217 166.968C217 149.62 226.824 139 244.904 139C262.985 139 273 149.62 273 166.968V204H257.25V185.871H232.36V204H217V166.968ZM257.25 172.23V166.968C257.25 158.198 253.456 153.614 244.801 153.614C236.147 153.614 232.353 158.19 232.353 166.968V172.23H257.243H257.25Z" fill="#353535"/>
<path d="M184.308 100.625V111.429L192.623 100.77L192.736 100.625H199.709L199.227 101.233L190.475 112.25L199.314 125.795L199.692 126.375H192.85L192.738 126.203L186.401 116.334L184.308 118.996V126.375H178.625V100.625H184.308Z" stroke="#353535" stroke-width="0.75"/>
<path d="M162.566 100.625V121.317H173.375V126.375H156.625V100.625H162.566Z" stroke="#353535" stroke-width="0.75"/>
<path d="M144.63 100.625L144.717 100.878L153.354 125.878L153.526 126.375H147.136L147.051 126.117L145.26 120.654H136.74L134.949 126.117L134.864 126.375H128.474L128.646 125.878L137.283 100.878L137.37 100.625H144.63ZM138.295 115.809H143.705L141 107.531L138.295 115.809Z" stroke="#353535" stroke-width="0.75"/>
<path d="M129.375 100.625V105.683H121.901V126.375H116.099V105.683H108.625V100.625H129.375Z" stroke="#353535" stroke-width="0.75"/>
</svg>
